<svg class="bob" font-family="arial" font-size="14" height="928" width="512" xmlns="http://www.w3.org/2000/svg">
<defs>
<marker id="triangle" markerHeight="8" markerWidth="8" orient="auto" refX="4" refY="2" viewBox="0 0 8 4">
<polygon fill="black" points="0,0 0,4 8,2 0,0"/>
</marker>
<marker id="clear_triangle" markerHeight="10" markerWidth="10" orient="auto" refX="1" refY="7" viewBox="0 0 20 14">
<polygon fill="none" points="2,2 2,12 18,7 2,2" stroke="black" stroke-width="2"/>
</marker>
<marker id="circle" markerHeight="5" markerWidth="5" orient="auto" refX="10" refY="10" viewBox="0 0 20 20">
<circle cx="10" cy="10" fill="black" r="8"/>
</marker>
<marker id="square" markerHeight="5" markerWidth="5" orient="auto" refX="10" refY="10" viewBox="0 0 20 20">
<rect fill="black" height="20" width="20" x="0" y="0"/>
</marker>
<marker id="open_circle" markerHeight="10" markerWidth="10" orient="auto" refX="10" refY="10" viewBox="0 0 20 20">
<circle cx="10" cy="10" fill="white" r="4" stroke="black" stroke-width="2"/>
</marker>
<marker id="big_open_circle" markerHeight="20" markerWidth="20" orient="auto" refX="20" refY="20" viewBox="0 0 40 40">
<circle cx="20" cy="20" fill="white" r="6" stroke="black" stroke-width="2"/>
</marker>
</defs>
<style type="text/css">

    line,path {
      stroke: black;
      stroke-width: 2;
      stroke-opacity: 1;
      fill-opacity: 1;
      stroke-linecap: round;
      stroke-linejoin: miter;
    }
    line.dashed {
        stroke-dasharray: 5;
    }
    circle.solid {
      fill:black;
      stroke: black;
      stroke-width: 2;
      stroke-opacity: 1;
      fill-opacity: 1;
      stroke-linecap: round;
      stroke-linejoin: miter;
    }
    circle.open {
      fill:none;
      stroke: black;
      stroke-width: 2;
      stroke-opacity: 1;
      fill-opacity: 1;
      stroke-linecap: round;
      stroke-linejoin: miter;
    }
    tspan.head{
        fill: none;
        stroke: none;
    }
    
</style>
<rect fill="white" height="928" width="512" x="0" y="0"/>
<g>
<line x1="60" x2="60" y1="8" y2="104"/>
<line x1="60" x2="428" y1="8" y2="8"/>
<line x1="60" x2="428" y1="104" y2="104"/>
<line x1="428" x2="428" y1="8" y2="104"/>
</g>
<g>
<line x1="60" x2="60" y1="136" y2="232"/>
<line x1="60" x2="428" y1="136" y2="136"/>
<line x1="60" x2="428" y1="232" y2="232"/>
<line x1="428" x2="428" y1="136" y2="232"/>
</g>
<g>
<line x1="60" x2="60" y1="264" y2="360"/>
<line x1="60" x2="428" y1="264" y2="264"/>
<line x1="60" x2="428" y1="360" y2="360"/>
<line x1="428" x2="428" y1="264" y2="360"/>
</g>
<g>
<line x1="60" x2="60" y1="392" y2="504"/>
<line x1="60" x2="428" y1="392" y2="392"/>
<line x1="60" x2="428" y1="504" y2="504"/>
<line x1="428" x2="428" y1="392" y2="504"/>
</g>
<g>
<line x1="60" x2="60" y1="536" y2="632"/>
<line x1="60" x2="420" y1="536" y2="536"/>
<line x1="60" x2="508" y1="632" y2="632"/>
<line x1="420" x2="420" y1="536" y2="600"/>
<line x1="420" x2="420" y1="600" y2="624"/>
<line x1="420" x2="508" y1="600" y2="600"/>
<line x1="508" x2="508" y1="600" y2="632"/>
</g>
<g>
<line x1="60" x2="60" y1="664" y2="776"/>
<line x1="60" x2="420" y1="664" y2="664"/>
<line x1="60" x2="420" y1="776" y2="776"/>
<line x1="420" x2="420" y1="664" y2="776"/>
</g>
<g>
<line x1="60" x2="60" y1="808" y2="904"/>
<line x1="60" x2="420" y1="808" y2="808"/>
<line x1="60" x2="420" y1="904" y2="904"/>
<line x1="420" x2="420" y1="808" y2="904"/>
</g>
<g>
<line x1="88" x2="96" y1="72" y2="72"/>
</g>
<g>
<text x="81" y="428">
Memory
</text>
</g>
<g>
<text x="81" y="572">
Network
</text>
</g>
<g>
<text x="89" y="44">
System
</text>
</g>
<g>
<text x="89" y="300">
Virtual
</text>
</g>
<g>
<text x="89" y="844">
Device
</text>
</g>
<g>
<text x="97" y="172">
Process
</text>
</g>
<g>
<text x="97" y="700">
Architecture
</text>
</g>
<g>
<text x="105" y="76">
where
</text>
</g>
<g>
<text x="137" y="428">
Management
</text>
</g>
<g>
<text x="145" y="44">
call
</text>
</g>
<g>
<text x="145" y="572">
Stack
</text>
</g>
<g>
<text x="145" y="844">
Drivers
</text>
</g>
<g>
<text x="153" y="76">
reads
</text>
</g>
<g>
<text x="153" y="300">
File
</text>
</g>
<g>
<text x="161" y="172">
management
</text>
</g>
<g>
<text x="185" y="44">
Interface
</text>
</g>
<g>
<text x="193" y="300">
System
</text>
</g>
<g>
<text x="201" y="76">
and
</text>
</g>
<g>
<text x="233" y="76">
writes
</text>
</g>
<g>
<text x="289" y="76">
happen
</text>
</g>
<g>
<text x="433" y="620">
XDP
</text>
</g>
<g>
<text x="465" y="620">
hook
</text>
</g>
</svg>